<?xml version="1.0" encoding="iso-8859-1"?>
<!-- Generator: Adobe Illustrator 19.0.0, SVG Export Plug-In . SVG Version: 6.00 Build 0)  -->
<svg version="1.1" id="Layer_1" xmlns="http://www.w3.org/2000/svg" xmlns:xlink="http://www.w3.org/1999/xlink" x="0px" y="0px"
	 viewBox="0 0 511.999 511.999" style="enable-background:new 0 0 511.999 511.999;" xml:space="preserve">
<polygon style="fill:#FDC00F;" points="511.999,225.482 279.918,225.482 231.497,305.696 205.255,225.482 205.255,20.001 
	511.999,20.001 "/>
<polygon style="opacity:0.1;enable-background:new    ;" points="484.289,19.872 484.289,197.643 252.209,197.643 215.879,257.827 
	231.497,305.566 279.918,225.353 511.999,225.353 511.999,19.872 "/>
<g>
	<path style="fill:#E8A600;" d="M467.361,80.89H255.662c-4.502,0-8.15-3.648-8.15-8.15c0-4.502,3.648-8.15,8.15-8.15h211.7
		c4.501,0,8.15,3.648,8.15,8.15C475.512,77.242,471.862,80.89,467.361,80.89z"/>
	<path style="fill:#E8A600;" d="M467.361,129.196H255.662c-4.502,0-8.15-3.648-8.15-8.15c0-4.502,3.648-8.15,8.15-8.15h211.7
		c4.501,0,8.15,3.648,8.15,8.15C475.512,125.548,471.862,129.196,467.361,129.196z"/>
	<path style="fill:#E8A600;" d="M467.361,177.502H255.662c-4.502,0-8.15-3.648-8.15-8.15s3.648-8.15,8.15-8.15h211.7
		c4.501,0,8.15,3.648,8.15,8.15S471.862,177.502,467.361,177.502z"/>
</g>
<path style="fill:#52D6C6;" d="M179.845,382.055h-37.15l0.054-31.892l0,0l19.4-21.366c7.283-8.021,11.318-18.467,11.318-29.302
	v-45.034c0-26.09-21.15-47.241-47.24-47.241H99.96c-26.09,0-47.24,21.15-47.24,47.241v45.034c0,10.834,4.035,21.281,11.318,29.302
	l19.4,21.366h0.001v31.892H46.342C20.854,382.055,0,402.908,0,428.397v63.73h226.188v-63.73
	C226.187,402.91,205.333,382.055,179.845,382.055z"/>
<g style="opacity:0.1;">
	<path d="M143.182,254.462v45.034c0,10.834-4.035,21.281-11.318,29.302l-19.4,21.366l-0.054,31.892h31.152l0.054-31.892l19.4-21.366
		c7.283-8.021,11.318-18.467,11.318-29.302v-45.034c0-26.09-21.15-47.241-47.24-47.241h-26.269c-0.819,0-1.633,0.021-2.442,0.062
		C123.339,208.554,143.182,229.191,143.182,254.462z"/>
	<path d="M180.712,382.055h-31.152c25.488,0,46.342,20.854,46.342,46.342v63.73h31.152v-63.73
		C227.054,402.91,206.2,382.055,180.712,382.055z"/>
</g>
<g>
</g>
<g>
</g>
<g>
</g>
<g>
</g>
<g>
</g>
<g>
</g>
<g>
</g>
<g>
</g>
<g>
</g>
<g>
</g>
<g>
</g>
<g>
</g>
<g>
</g>
<g>
</g>
<g>
</g>
</svg>
